<svg width="48" height="48" viewBox="0 0 48 48" fill="none" xmlns="http://www.w3.org/2000/svg">
<path d="M23.6 32C22.83 32 22.2 31.37 22.2 30.6C22.2 25.21 17.79 20.8 12.4 20.8C11.63 20.8 11 20.17 11 19.4C11 18.63 11.63 18 12.4 18C19.365 18 25 23.635 25 30.6C25 31.37 24.37 32 23.6 32Z" fill="#1F2041" fill-opacity="0.25"/>
<path d="M37 19.393C37 20.1592 36.3613 20.7861 35.5806 20.7861C32.2097 20.7861 29.1935 22.4577 27.4194 25C27.029 24.0249 26.5677 23.1194 26 22.2836C28.3419 19.6368 31.7839 18 35.5806 18C36.3613 18 37 18.6269 37 19.393Z" fill="#1F2041" fill-opacity="0.25"/>
<path d="M24 48C10.7647 48 0 37.2353 0 24C0 10.7647 10.7647 0 24 0C37.2353 0 48 10.7647 48 24C48 37.2353 37.2353 48 24 48ZM24 2.82353C12.3176 2.82353 2.82353 12.3176 2.82353 24C2.82353 35.6824 12.3176 45.1765 24 45.1765C35.6824 45.1765 45.1765 35.6824 45.1765 24C45.1765 12.3176 35.6824 2.82353 24 2.82353Z" fill="#1F2041" fill-opacity="0.25"/>
</svg>
